<?xml version="1.0" ?><svg id="Layer_1_1_" style="enable-background:new 0 0 64 64;" version="1.1" viewBox="0 0 64 64" xml:space="preserve" xmlns="http://www.w3.org/2000/svg" xmlns:xlink="http://www.w3.org/1999/xlink"><g><circle cx="28" cy="23" r="1"/><circle cx="18" cy="23" r="1"/><path d="M60,1H36c-1.654,0-3,1.346-3,3v0.851C30.343,2.466,26.844,1,23,1C14.729,1,8,7.729,8,16v3h0.031   C6.806,19.912,6,21.359,6,23c0,1.627,0.793,3.061,2,3.974V30c0,1.654,1.346,3,3,3h2.214c0.688,1.34,1.634,2.526,2.786,3.479v1.753   l-9.804,2.614C3.137,41.662,1,44.443,1,47.61V63h44V47.61c0-3.167-2.137-5.948-5.196-6.764L30,38.232v-1.753   c2.441-2.019,4-5.07,4-8.479h1c2.757,0,5-2.243,5-5c0-1.641-0.806-3.088-2.031-4H38h9v7l9.333-7H60c1.654,0,3-1.346,3-3V4   C63,2.346,61.654,1,60,1z M10,16c0-7.168,5.832-13,13-13s13,5.832,13,13v2.101C35.677,18.035,35.342,18,35,18h-1h-1   c-2.957,0-5.737-1.152-7.828-3.243L23,12.586l-2.172,2.171C18.737,16.848,15.957,18,13,18h-1h-1c-0.342,0-0.677,0.035-1,0.101V16z    M11,20h1v6h-1c-1.654,0-3-1.346-3-3S9.346,20,11,20z M11,31c-0.552,0-1-0.449-1-1v-2.101C10.323,27.965,10.658,28,11,28h1   c0,1.041,0.155,2.045,0.426,3H11z M16.701,40.115l4.818,4.818l-4.202,3.502l-3.856-7.456L16.701,40.115z M25.634,48.497L24.382,51   h-2.764l-1.251-2.503L23,46.302L25.634,48.497z M21.905,53h2.191l0.8,8h-3.79L21.905,53z M6.712,42.779l4.769-1.272l5.203,10.059   l2.104-1.754l1.189,2.377L19.095,61H11V50H9v5H3v-7.39C3,45.348,4.526,43.361,6.712,42.779z M3,57h6v4H3V57z M37,61v-4h6v4H37z    M43,47.61V55h-6v-5h-2v11h-8.095l-0.882-8.812l1.189-2.377l2.1,1.75l5.246-10.045l4.73,1.262C41.474,43.361,43,45.348,43,47.61z    M32.577,40.989l-3.89,7.449l-4.206-3.505l4.818-4.818L32.577,40.989z M28,38.586l-5,5l-5-5v-0.8C19.502,38.556,21.199,39,23,39   s3.498-0.444,5-1.214V38.586z M32,28c0,4.962-4.037,9-9,9c-3.114,0-5.862-1.59-7.478-4h2.663c0.414,1.161,1.514,2,2.816,2h4   c1.654,0,3-1.346,3-3s-1.346-3-3-3h-4c-1.302,0-2.402,0.839-2.816,2h-3.659C14.191,30.06,14,29.053,14,28v-8.038   c3.114-0.234,6.011-1.559,8.242-3.791L23,15.414l0.758,0.757c2.231,2.232,5.128,3.557,8.242,3.791V28z M20,32c0-0.551,0.448-1,1-1   h4c0.552,0,1,0.449,1,1s-0.448,1-1,1h-4C20.448,33,20,32.551,20,32z M35,26h-1v-6h1c1.654,0,3,1.346,3,3S36.654,26,35,26z M61,16   c0,0.551-0.448,1-1,1h-4.333L49,22v-5H38v-1c0-3.362-1.125-6.458-3-8.962V4c0-0.551,0.448-1,1-1h24c0.552,0,1,0.449,1,1V16z"/><path d="M56,7c-1.654,0-3,1.346-3,3s1.346,3,3,3s3-1.346,3-3S57.654,7,56,7z M56,11c-0.552,0-1-0.449-1-1s0.448-1,1-1s1,0.449,1,1   S56.552,11,56,11z"/><path d="M48,7c-1.654,0-3,1.346-3,3s1.346,3,3,3s3-1.346,3-3S49.654,7,48,7z M48,11c-0.552,0-1-0.449-1-1s0.448-1,1-1s1,0.449,1,1   S48.552,11,48,11z"/><path d="M40,7c-1.654,0-3,1.346-3,3s1.346,3,3,3s3-1.346,3-3S41.654,7,40,7z M40,11c-0.552,0-1-0.449-1-1s0.448-1,1-1s1,0.449,1,1   S40.552,11,40,11z"/></g></svg>